<svg xmlns="http://www.w3.org/2000/svg" version="1.1" viewBox="-5.0 -10.0 110.0 135.0">
 <path d="m50 2.7773c-26.109 0-47.223 21.113-47.223 47.223s21.109 47.223 47.223 47.223c26.109 0 47.223-21.109 47.223-47.223 0-26.109-21.113-47.223-47.223-47.223zm2.7773 50v25c0 1.3906-1.3906 2.7773-2.7773 2.7773-1.3906 0-2.7773-1.3906-2.7773-2.7773v-25h-25c-1.3906 0-2.7773-1.3906-2.7773-2.7773 0-1.3906 1.3906-2.7773 2.7773-2.7773h25v-25c0-1.3906 1.3906-2.7773 2.7773-2.7773 1.3906 0 2.7773 1.3906 2.7773 2.7773v25h25c1.3906 0 2.7773 1.3906 2.7773 2.7773 0 1.3906-1.3906 2.7773-2.7773 2.7773z"/>
<text x="0.0" y="117.5" font-size="5.0" font-weight="bold" font-family="Arbeit Regular, Helvetica, Arial-Unicode, Arial, Sans-serif" fill="#000000">Created by Humam</text><text x="0.0" y="122.5" font-size="5.0" font-weight="bold" font-family="Arbeit Regular, Helvetica, Arial-Unicode, Arial, Sans-serif" fill="#000000">from Noun Project</text></svg>